# Blender 4.0.2
# www.blender.org
o key
v -0.199909 0.489199 -0.532411
v 0.199909 0.489199 -0.532411
v -0.233306 0.489199 -1.510810
v 0.233306 0.489199 -1.510810
v -0.233306 -0.489200 -1.510810
v 0.233306 -0.489200 -1.510810
v -0.199909 -0.489200 -0.532411
v 0.199909 -0.489200 -0.532411
v 0.153837 -0.376458 -0.645152
v 0.153837 0.376458 -0.645152
v 0.153837 -0.376458 -1.398068
v 0.153837 0.376458 -1.398068
v -0.153837 -0.376458 -0.645152
v -0.153837 0.376458 -0.645152
v -0.153837 0.376458 -1.398068
v -0.153837 -0.376458 -1.398068
v 0.250884 -0.034645 -1.635553
v -0.250884 -0.034645 -1.635553
v -0.193065 -0.026660 -1.494063
v 0.193065 -0.026660 -1.494063
v 0.193065 -0.004475 -0.549158
v 0.250884 -0.005815 -0.407668
v -0.250884 -0.005815 -0.407668
v -0.193065 -0.004475 -0.549158
v 0.193065 -0.472453 -1.018830
v 0.250884 -0.613942 -1.017997
v -0.250884 -0.613942 -1.017997
v -0.193065 -0.472453 -1.018830
v 0.193065 0.472452 -1.022304
v 0.250884 0.613942 -1.022512
v -0.250884 0.613942 -1.022512
v -0.193065 0.472452 -1.022304
v -0.199909 -0.122969 -0.332719
v 0.199909 -0.122969 -0.332719
v 0.250884 -0.001462 -0.313792
v -0.250884 -0.001462 -0.313792
v 0.199909 0.122969 -0.332719
v -0.199909 0.122969 -0.332719
v -0.199909 -0.122969 1.494507
v 0.199909 -0.122969 1.494507
v 0.250884 -0.001462 1.513434
v -0.250884 -0.001462 1.513434
v 0.199909 0.122970 1.494507
v -0.199909 0.122970 1.494507
v 0.250884 -0.001462 1.305015
v 0.199909 -0.122969 1.286088
v -0.199909 -0.122969 1.286088
v -0.250884 -0.001462 1.305015
v -0.199909 0.122970 1.286088
v 0.199909 0.122970 1.286088
v 0.250884 -0.001462 1.143384
v 0.199909 -0.122969 1.124457
v -0.199909 -0.122969 1.124457
v -0.250884 -0.001462 1.143384
v -0.199909 0.122970 1.124457
v 0.199909 0.122970 1.124457
v 0.250884 -0.001462 0.852122
v 0.199909 -0.122969 0.833195
v -0.199909 -0.122969 0.833195
v -0.250884 -0.001462 0.852122
v -0.199909 0.122970 0.833195
v 0.199909 0.122970 0.833195
v 0.250884 -0.001462 0.679337
v 0.199909 -0.122969 0.660410
v -0.199909 -0.122969 0.660410
v -0.250884 -0.001462 0.679337
v -0.199909 0.122970 0.660410
v 0.199909 0.122970 0.660410
v 0.199909 -0.642915 1.124457
v -0.199909 -0.642915 1.124457
v 0.199909 -0.642915 1.286088
v -0.199909 -0.642915 1.286088
v 0.199909 -0.642915 0.660410
v -0.199909 -0.642915 0.660410
v 0.199909 -0.642915 0.833195
v -0.199909 -0.642915 0.833195
v -0.021621 -0.513538 -1.568581
v -0.023525 -0.644676 -1.023906
v -0.018526 -0.513538 -0.551194
v -0.018526 -0.128531 -0.343544
v -0.018526 -0.128531 0.689160
v -0.018526 -0.675134 0.689160
v -0.018526 -0.675134 0.868831
v -0.018526 -0.128531 0.868831
v -0.018526 -0.128531 1.171699
v -0.018526 -0.675134 1.171699
v -0.018526 -0.675134 1.339772
v -0.018526 -0.128531 1.339772
v -0.018526 -0.128531 1.556495
v -0.023525 -0.000794 1.576177
v -0.018526 0.130017 1.556495
v -0.018526 0.130017 1.339772
v -0.018526 0.130017 1.171699
v -0.018526 0.130017 0.868831
v -0.018526 0.130017 0.689160
v -0.018526 0.130017 -0.343544
v -0.018526 0.515023 -0.551194
v -0.023525 0.646161 -1.028601
v -0.021621 0.515023 -1.568581
v -0.023525 -0.035678 -1.698295
v -0.032822 -0.004076 -0.591289
v -0.026692 -0.342887 -0.678723
v -0.032822 -0.430321 -1.019078
v -0.026692 -0.342887 -1.364497
v -0.032822 -0.024283 -1.451931
v -0.026692 0.342887 -1.364497
v -0.032822 0.430321 -1.022242
v -0.026692 0.342887 -0.678723
vn -0.1202 0.9580 0.2603
vn 0.0013 0.9653 0.2611
vn -0.0016 0.9653 0.2611
vn -0.2697 0.2265 -0.9359
vn 0.0016 0.2344 -0.9721
vn -0.0010 0.2344 -0.9721
vn -0.1549 -0.9585 -0.2393
vn 0.0016 -0.9703 -0.2417
vn -0.0008 -0.9703 -0.2417
vn -0.2877 -0.2094 0.9346
vn 0.0160 -0.2067 0.9783
vn -0.0163 -0.2079 0.9780
vn 0.9899 -0.1042 -0.0962
vn 0.9511 -0.0274 -0.3076
vn 0.9257 -0.0000 -0.3783
vn 0.8888 0.4548 0.0572
vn 0.8878 -0.0544 0.4570
vn 0.9257 -0.3783 -0.0000
vn -0.9511 -0.0274 -0.3077
vn -0.9899 -0.1042 -0.0962
vn -0.9257 -0.0000 -0.3783
vn -0.9257 -0.3783 -0.0000
vn -0.8878 -0.0544 0.4570
vn -0.8888 0.4548 0.0572
vn -0.3158 0.6720 -0.6698
vn -0.2795 -0.0003 -0.9602
vn -0.0070 -0.0001 -1.0000
vn 0.0052 0.7084 -0.7058
vn -0.2795 0.9602 0.0002
vn -0.0070 1.0000 0.0001
vn 0.0054 0.7295 0.6839
vn -0.3157 0.6897 0.6516
vn -0.2795 -0.9602 -0.0000
vn -0.0070 -1.0000 -0.0000
vn 0.0051 -0.7043 -0.7099
vn -0.3158 -0.6685 -0.6733
vn -0.3157 -0.6539 0.6876
vn -0.2794 -0.0020 0.9602
vn -0.0070 -0.0006 1.0000
vn 0.0049 -0.6867 0.7269
vn -0.2696 -0.2588 -0.9276
vn -0.0011 -0.2677 -0.9635
vn 0.0017 -0.2677 -0.9635
vn -0.8901 0.0611 0.4517
vn 0.8901 0.0611 0.4517
vn 0.9511 0.0269 -0.3077
vn 0.9892 0.0984 -0.1086
vn -0.2892 0.2049 0.9351
vn -0.0160 0.2035 0.9789
vn 0.0158 0.2023 0.9792
vn -0.9892 0.0984 -0.1086
vn -0.9511 0.0269 -0.3077
vn 0.9257 0.3783 -0.0000
vn -0.1133 -0.9583 0.2625
vn -0.0015 -0.9648 0.2631
vn 0.0013 -0.9648 0.2631
vn -0.9257 0.3783 -0.0000
vn 0.8889 -0.4544 0.0576
vn -0.1616 0.9569 -0.2412
vn -0.0008 0.9698 -0.2440
vn 0.0016 0.9698 -0.2439
vn -0.8889 -0.4544 0.0576
vn 0.0324 -0.4764 0.8786
vn -0.0001 -0.4767 0.8791
vn 0.0001 -0.4767 0.8791
vn 0.9324 -0.2244 0.2833
vn -0.9899 -0.1041 -0.0962
vn -0.9511 -0.0274 -0.3076
vn -0.9324 -0.2244 0.2833
vn 0.9892 0.0983 -0.1086
vn 0.9511 0.0270 -0.3077
vn 0.9391 0.2164 0.2668
vn -0.0001 0.4767 0.8791
vn 0.0285 0.4765 0.8787
vn -0.0000 0.4767 0.8791
vn -0.9391 0.2164 0.2668
vn -0.0306 -0.9995 -0.0000
vn -0.0000 -1.0000 -0.0000
vn 0.0001 -1.0000 -0.0000
vn 0.9221 -0.3869 -0.0000
vn -0.9221 -0.3869 -0.0000
vn 0.9254 0.3791 -0.0000
vn -0.0000 1.0000 -0.0000
vn -0.0388 0.9992 -0.0000
vn -0.9254 0.3791 -0.0000
vn -0.0002 -1.0000 -0.0000
vn 0.0003 -1.0000 -0.0000
vn 0.0003 1.0000 -0.0000
vn -0.1749 -0.9846 -0.0000
vn -0.0008 -1.0000 -0.0000
vn 0.0011 -1.0000 -0.0000
vn -0.0001 -1.0000 -0.0000
vn 0.0002 -1.0000 -0.0000
vn -0.0005 -1.0000 -0.0000
vn 0.0007 -1.0000 -0.0000
vn 0.2520 -0.0000 -0.9677
vn 0.0001 -0.0000 -1.0000
vn -0.0010 -0.0000 -1.0000
vn 1.0000 -0.0000 -0.0000
vn -0.0002 -0.0000 1.0000
vn -0.2838 -0.0000 0.9589
vn 0.0011 -0.0000 1.0000
vn -1.0000 -0.0000 -0.0000
vn 0.1566 -0.0000 -0.9877
vn -0.0006 -0.0000 -1.0000
vn -0.0001 -0.0000 1.0000
vn -0.1928 -0.0000 0.9812
vn 0.0007 -0.0000 1.0000
vn 0.1289 -0.9624 -0.2393
vn 0.0943 -0.9607 0.2610
vn -0.0269 -0.4765 0.8788
vn 0.0255 -0.9997 -0.0000
vn -0.1305 -0.0000 -0.9914
vn 0.1459 -0.9893 -0.0000
vn 0.1610 -0.0000 0.9870
vn -0.2114 -0.0000 -0.9774
vn 0.2387 -0.0000 0.9711
vn 0.2426 -0.1920 0.9509
vn 0.2437 0.1878 0.9515
vn 0.0322 0.9995 -0.0000
vn -0.0237 0.4765 0.8788
vn 0.1001 0.9607 0.2588
vn 0.1345 0.9611 -0.2412
vn 0.2263 0.2276 -0.9471
vn 0.2262 -0.2600 -0.9387
vn 0.2023 -0.0003 -0.9793
vn 0.2283 0.6896 -0.6873
vn 0.2023 0.9793 0.0002
vn 0.2281 0.7079 0.6685
vn 0.2023 -0.0023 0.9793
vn 0.2283 -0.6708 0.7056
vn 0.2023 -0.9793 0.0001
vn 0.2283 -0.6860 -0.6909
vn 0.2284 -0.6860 -0.6909
vt 0.375000 0.000000
vt 0.488340 0.000000
vt 0.488340 0.125184
vt 0.375000 0.125184
vt 0.375000 0.250000
vt 0.488340 0.250000
vt 0.488340 0.382054
vt 0.375000 0.382054
vt 0.375000 0.500000
vt 0.488340 0.500000
vt 0.488340 0.625736
vt 0.375000 0.625736
vt 0.375000 0.750000
vt 0.488340 0.750000
vt 0.488340 0.873816
vt 0.375000 0.873816
vt 0.751184 0.000000
vt 0.875000 0.000000
vt 0.875000 0.124264
vt 0.875000 0.250000
vt 0.757054 0.250000
vt 0.625000 0.250000
vt 0.625000 0.125184
vt 0.625000 0.000000
vt 0.125000 0.000000
vt 0.248816 0.000000
vt 0.242946 0.250000
vt 0.125000 0.250000
vt 0.125000 0.124264
vt 0.000000 0.000000
vt 0.495264 0.000000
vt 0.495264 0.414221
vt 0.000000 0.414221
vt 0.497058 1.000000
vt 0.497058 0.585779
vt 1.000000 0.585779
vt 1.000000 1.000000
vt 0.499266 1.000000
vt 0.499266 0.585779
vt 0.528215 0.000000
vt 0.528215 0.414221
vt 1.000000 0.000000
vt 1.000000 0.414221
vt 0.488340 1.000000
vt 0.375000 1.000000
vt 0.000000 0.585779
vt 0.000000 1.000000
vt 0.625000 0.750000
vt 0.625000 0.873816
vt 0.625000 1.000000
vt 0.625000 0.500000
vt 0.625000 0.625736
vt 0.625000 0.382054
vt 0.495264 1.000000
vt 0.497058 0.000000
vt 0.528215 1.000000
vt 0.499266 0.000000
s 1
f 1/1/1 97/2/2 98/3/3 31/4/1
f 3/5/4 99/6/5 100/7/6 18/8/4
f 5/9/7 77/10/8 78/11/9 27/12/7
f 39/13/10 89/14/11 90/15/12 42/16/10
f 22/17/13 8/18/14 9/18/15 21/17/15
s 0
f 26/19/16 6/20/16 11/20/16 25/19/16
f 20/21/17 17/21/17 4/22/17 12/22/17
f 30/23/18 2/24/18 10/24/18 29/23/18
s 1
f 7/25/19 23/26/20 24/26/21 13/25/21
s 0
f 1/1/22 31/4/22 32/4/22 14/1/22
f 3/5/23 18/27/23 19/27/23 15/5/23
f 5/28/24 27/29/24 28/29/24 16/28/24
s 1
f 13/30/25 24/31/26 101/32/27 102/33/28
f 28/34/29 103/35/30 104/36/31 16/37/32
f 32/38/33 107/39/34 108/36/35 14/37/36
f 15/30/37 19/40/38 105/41/39 106/33/40
f 18/8/41 100/7/42 77/10/43 5/9/41
s 0
f 19/27/44 18/27/44 5/28/44 16/28/44
s 1
f 105/41/39 19/40/38 16/42/32 104/43/31
s 0
f 6/20/45 17/21/45 20/21/45 11/20/45
s 1
f 2/24/46 22/17/47 21/17/15 10/24/15
f 42/16/48 90/15/49 91/44/50 44/45/48
f 24/26/21 23/26/51 1/1/52 14/1/21
f 108/43/35 101/32/27 24/31/26 14/42/36
s 0
f 8/18/53 26/19/53 25/19/53 9/18/53
s 1
f 27/12/54 78/11/55 79/14/56 7/13/54
s 0
f 28/29/57 27/29/57 7/25/57 13/25/57
s 1
f 102/46/28 103/35/30 28/34/29 13/47/25
s 0
f 4/22/58 30/23/58 29/23/58 12/22/58
s 1
f 31/4/59 98/3/60 99/6/61 3/5/59
s 0
f 32/4/62 31/4/62 3/5/62 15/5/62
s 1
f 106/46/40 107/39/34 32/38/33 15/47/37
f 7/13/63 79/14/64 80/14/65 33/13/63
f 8/48/14 22/49/13 35/49/66 34/48/66
f 23/16/67 7/13/68 33/13/69 36/16/69
f 22/49/70 2/50/71 37/50/72 35/49/72
f 97/44/73 1/45/74 38/45/74 96/44/75
f 1/45/52 23/16/51 36/16/76 38/45/76
f 33/13/77 80/14/78 81/14/79 65/13/77
s 0
f 34/48/80 35/49/80 63/49/80 64/48/80
f 36/16/81 33/13/81 65/13/81 66/16/81
f 35/49/82 37/50/82 68/50/82 63/49/82
s 1
f 96/44/83 38/45/84 67/45/84 95/44/83
s 0
f 38/45/85 36/16/85 66/16/85 67/45/85
f 46/48/80 45/49/80 41/49/80 40/48/80
s 1
f 47/13/77 88/14/86 89/14/87 39/13/77
s 0
f 48/16/81 47/13/81 39/13/81 42/16/81
f 49/45/85 48/16/85 42/16/85 44/45/85
s 1
f 92/44/83 49/45/84 44/45/84 91/44/88
s 0
f 45/49/82 50/50/82 43/50/82 41/49/82
f 52/48/80 51/49/80 45/49/80 46/48/80
s 1
f 70/13/89 86/14/90 87/14/91 72/13/89
s 0
f 54/16/81 53/13/81 47/13/81 48/16/81
f 55/45/85 54/16/85 48/16/85 49/45/85
s 1
f 93/44/83 55/45/84 49/45/84 92/44/83
s 0
f 51/49/82 56/50/82 50/50/82 45/49/82
f 58/48/80 57/49/80 51/49/80 52/48/80
s 1
f 59/13/77 84/14/92 85/14/93 53/13/77
s 0
f 60/16/81 59/13/81 53/13/81 54/16/81
f 61/45/85 60/16/85 54/16/85 55/45/85
s 1
f 94/44/83 61/45/84 55/45/84 93/44/83
s 0
f 57/49/82 62/50/82 56/50/82 51/49/82
f 64/48/80 63/49/80 57/49/80 58/48/80
s 1
f 74/13/89 82/14/94 83/14/95 76/13/89
s 0
f 66/16/81 65/13/81 59/13/81 60/16/81
f 67/45/85 66/16/85 60/16/85 61/45/85
s 1
f 95/44/83 67/45/84 61/45/84 94/44/83
s 0
f 63/49/82 68/50/82 62/50/82 57/49/82
s 1
f 53/13/96 85/14/97 86/14/98 70/13/96
s 0
f 52/48/99 46/48/99 71/48/99 69/48/99
s 1
f 88/14/100 47/13/101 72/13/101 87/14/102
s 0
f 47/13/103 53/13/103 70/13/103 72/13/103
s 1
f 65/13/104 81/14/97 82/14/105 74/13/104
s 0
f 64/48/99 58/48/99 75/48/99 73/48/99
s 1
f 84/14/106 59/13/107 76/13/107 83/14/108
s 0
f 59/13/103 65/13/103 74/13/103 76/13/103
s 1
f 77/10/8 6/51/109 26/52/109 78/11/9
f 79/14/56 78/11/55 26/52/110 8/48/110
f 80/14/65 79/14/64 8/48/111 34/48/111
f 81/14/79 80/14/78 34/48/112 64/48/112
f 82/14/105 81/14/97 64/48/113 73/48/113
f 83/14/95 82/14/94 73/48/114 75/48/114
f 58/48/115 84/14/106 83/14/108 75/48/115
f 85/14/93 84/14/92 58/48/112 52/48/112
f 86/14/98 85/14/97 52/48/116 69/48/116
f 87/14/91 86/14/90 69/48/114 71/48/114
f 46/48/117 88/14/100 87/14/102 71/48/117
f 89/14/87 88/14/86 46/48/112 40/48/112
f 90/15/12 89/14/11 40/48/118 41/49/118
f 91/44/50 90/15/49 41/49/119 43/50/119
f 50/50/120 92/44/83 91/44/88 43/50/120
f 56/50/120 93/44/83 92/44/83 50/50/120
f 62/50/120 94/44/83 93/44/83 56/50/120
f 68/50/120 95/44/83 94/44/83 62/50/120
f 37/50/120 96/44/83 95/44/83 68/50/120
f 2/50/121 97/44/73 96/44/75 37/50/121
f 98/3/3 97/2/2 2/24/122 30/23/122
f 99/6/61 98/3/60 30/23/123 4/22/123
f 100/7/6 99/6/5 4/22/124 17/53/124
f 77/10/43 100/7/42 17/53/125 6/51/125
f 102/33/28 101/32/27 21/54/126 9/47/127
f 9/30/127 25/55/128 103/35/30 102/46/28
f 104/36/31 103/35/30 25/55/128 11/42/129
f 20/56/130 105/41/39 104/43/31 11/37/129
f 106/33/40 105/41/39 20/56/130 12/47/131
f 12/30/131 29/57/132 107/39/34 106/46/40
f 108/36/35 107/39/34 29/57/132 10/42/133
f 21/54/126 101/32/27 108/43/35 10/37/134
